<svg version="1.1" id="Layer_1" xmlns="http://www.w3.org/2000/svg" xmlns:xlink="http://www.w3.org/1999/xlink" x="0px" y="0px"
	 width="266.24px" height="270.4px" viewBox="396.88 72.758 266.24 270.4" enable-background="new 396.88 72.758 266.24 270.4"
	 xml:space="preserve">
<path fill="#9E0C0F" d="M621.52,251.638h41.601v66.56c0,13.785-11.175,24.96-24.96,24.96H421.84c-13.785,0-24.96-11.175-24.96-24.96
	v-66.56h41.601v49.92H621.52V251.638z M505.04,72.758v108.16h-33.072c-2.285-0.238-4.33,1.422-4.568,3.707
	c-0.121,1.164,0.254,2.325,1.032,3.199l56.701,77.958c1.952,2.7,5.723,3.306,8.423,1.354c0.52-0.376,0.977-0.833,1.354-1.354
	l56.617-77.875c1.528-1.715,1.378-4.345-0.338-5.874c-0.873-0.778-2.034-1.153-3.198-1.032h-33.03V72.842L505.04,72.758z"/>
</svg>
