<svg xmlns="http://www.w3.org/2000/svg" xmlns:xlink="http://www.w3.org/1999/xlink" version="1.1" x="0px" y="0px" viewBox="0 0 100 125" style="enable-background:new 0 0 100 100;" xml:space="preserve"><g><path d="M70.5,42.2c-1.6-1.6-4.1-1.6-5.7,0c-1.6,1.6-1.6,4.1,0,5.7l4.9,4.9c2.3,2.3,3.5,5.3,3.5,8.5s-1.2,6.2-3.5,8.5   c-2.3,2.3-5.3,3.5-8.5,3.5s-6.2-1.2-8.5-3.5l-5-4.9c-1.6-1.6-4.1-1.6-5.7,0c-1.6,1.6-1.6,4.1,0,5.7l4.9,4.9   c3.8,3.8,8.8,5.9,14.1,5.9s10.4-2.1,14.1-5.9c3.8-3.8,5.9-8.8,5.9-14.1s-2.1-10.4-5.9-14.1L70.5,42.2z"/><path d="M38.7,26.7c3.2,0,6.2,1.2,8.5,3.5l5,5c1.6,1.6,4.1,1.6,5.7,0c1.6-1.6,1.6-4.1,0-5.7l-4.9-5c-3.8-3.8-8.8-5.9-14.1-5.9   s-10.4,2.1-14.1,5.9c-3.8,3.8-5.9,8.8-5.9,14.1s2.1,10.4,5.9,14.1l4.9,5c0.8,0.8,1.8,1.2,2.8,1.2c1,0,2-0.4,2.8-1.2   c1.6-1.6,1.6-4.1,0-5.7l-5-5c-2.3-2.3-3.5-5.3-3.5-8.5s1.2-6.2,3.5-8.5C32.5,27.9,35.5,26.7,38.7,26.7z"/><path d="M56.4,60.4c1,0,2-0.4,2.8-1.2c1.6-1.6,1.6-4.1,0-5.7L46.5,40.8c-1.6-1.6-4.1-1.6-5.7,0c-1.6,1.6-1.6,4.1,0,5.7l12.7,12.7   C54.3,60,55.3,60.4,56.4,60.4z"/></g></svg>
